<svg width="18" height="16" viewBox="0 0 18 16" fill="none" xmlns="http://www.w3.org/2000/svg">
<path d="M8.88537 4.53139C8.50764 4.12848 7.8748 4.10806 7.47189 4.4858C7.06898 4.86353 7.04856 5.49636 7.42629 5.89927L8.88537 4.53139ZM10.6418 7.867L11.3713 8.55094C11.7319 8.16628 11.7319 7.56772 11.3713 7.18306L10.6418 7.867ZM7.42629 9.83473C7.04856 10.2376 7.06898 10.8705 7.47189 11.2482C7.8748 11.6259 8.50764 11.6055 8.88537 11.2026L7.42629 9.83473ZM7.42629 5.89927L9.91223 8.55094L11.3713 7.18306L8.88537 4.53139L7.42629 5.89927ZM9.91223 7.18306L7.42629 9.83473L8.88537 11.2026L11.3713 8.55094L9.91223 7.18306ZM9 3C12.2896 3 14.75 5.34605 14.75 8H16.75C16.75 4.02653 13.1662 1 9 1V3ZM14.75 8C14.75 10.654 12.2896 13 9 13V15C13.1662 15 16.75 11.9735 16.75 8H14.75ZM9 13C5.71038 13 3.25 10.654 3.25 8H1.25C1.25 11.9735 4.83377 15 9 15V13ZM3.25 8C3.25 5.34605 5.71038 3 9 3V1C4.83377 1 1.25 4.02653 1.25 8H3.25Z" fill="black"/>
</svg>
