<svg width="390" height="377" viewBox="0 0 390 377" fill="none" xmlns="http://www.w3.org/2000/svg">
<path d="M479 228.5C479 328 343.596 435 181.5 435C19.4044 435 -112 337.622 -112 217.5C-112 97.3781 19.4044 0 181.5 0C194 176 429.5 71.5 479 228.5Z" fill="#D3D3D3"/>
<path d="M463.5 306C463.5 405.5 328.096 512.5 166 512.5C3.90442 512.5 -127.5 415.122 -127.5 295C-127.5 174.878 3.90442 77.5 166 77.5C178.5 253.5 414 149 463.5 306Z" fill="#F5F0F0"/>
<path d="M676 284.5C676 384 540.596 491 378.5 491C216.404 491 84.9999 393.622 84.9999 273.5C84.9999 153.378 216.404 56 378.5 56C391 232 626.5 127.5 676 284.5Z" fill="#EAEAEA"/>
</svg>
