<svg width="68" height="68" viewBox="0 0 68 68" fill="none" xmlns="http://www.w3.org/2000/svg">
<g filter="url(#filter0_d_161_547)">
<rect x="4" width="60" height="60" rx="10" fill="white"/>
<path fill-rule="evenodd" clip-rule="evenodd" d="M16.9301 17.93C18.8053 16.0552 21.3484 15.0021 24.0001 15.0021C26.6517 15.0021 29.1948 16.0552 31.0701 17.93L34.0001 20.8575L36.9301 17.93C37.8525 16.9749 38.956 16.213 40.176 15.6889C41.3961 15.1649 42.7082 14.889 44.036 14.8775C45.3638 14.8659 46.6806 15.1189 47.9096 15.6217C49.1386 16.1245 50.2551 16.8671 51.194 17.806C52.1329 18.7449 52.8755 19.8615 53.3783 21.0904C53.8811 22.3194 54.1341 23.6362 54.1226 24.964C54.111 26.2918 53.8352 27.604 53.3111 28.824C52.787 30.044 52.0252 31.1475 51.0701 32.07L34.0001 49.1425L16.9301 32.07C15.0554 30.1947 14.0022 27.6516 14.0022 25C14.0022 22.3483 15.0554 19.8052 16.9301 17.93V17.93Z" stroke="#14130E" stroke-width="2" stroke-linejoin="round"/>
</g>
<defs>
<filter id="filter0_d_161_547" x="0" y="0" width="68" height="68" filterUnits="userSpaceOnUse" color-interpolation-filters="sRGB">
<feFlood flood-opacity="0" result="BackgroundImageFix"/>
<feColorMatrix in="SourceAlpha" type="matrix" values="0 0 0 0 0 0 0 0 0 0 0 0 0 0 0 0 0 0 127 0" result="hardAlpha"/>
<feOffset dy="4"/>
<feGaussianBlur stdDeviation="2"/>
<feComposite in2="hardAlpha" operator="out"/>
<feColorMatrix type="matrix" values="0 0 0 0 0 0 0 0 0 0 0 0 0 0 0 0 0 0 0.25 0"/>
<feBlend mode="normal" in2="BackgroundImageFix" result="effect1_dropShadow_161_547"/>
<feBlend mode="normal" in="SourceGraphic" in2="effect1_dropShadow_161_547" result="shape"/>
</filter>
</defs>
</svg>
