<svg width="44" height="44" viewBox="0 0 44 44" fill="none" xmlns="http://www.w3.org/2000/svg">
<path d="M14.6666 7.79163C10.6149 7.79163 7.33325 9.16663 7.33325 15.125V33C7.33325 38.5 10.6149 40.3333 14.6666 40.3333H29.3333C33.3849 40.3333 36.6666 38.5 36.6666 33V15.125C36.6666 9.16663 33.3849 7.79163 29.3333 7.79163M14.6666 7.79163C14.6666 8.92829 15.1249 9.95495 15.8765 10.7066C16.6282 11.4583 17.6549 11.9166 18.7916 11.9166H25.2083C27.4816 11.9166 29.3333 10.065 29.3333 7.79163M14.6666 7.79163C14.6666 5.51829 16.5183 3.66663 18.7916 3.66663H25.2083C26.3449 3.66663 27.3716 4.12497 28.1233 4.87663C28.875 5.6283 29.3333 6.65496 29.3333 7.79163M14.6666 23.8333H21.9999M14.6666 31.1666H29.3333" stroke="#F0DFBD" stroke-width="1.5" stroke-linecap="round" stroke-linejoin="round"/>
</svg>
